<svg width="90" height="90" viewBox="0 0 90 90" fill="none" xmlns="http://www.w3.org/2000/svg">
<path d="M45 90.0001C69.8528 90.0001 90 69.8529 90 45.0001C90 20.1473 69.8528 0 45 0C20.1472 0 0 20.1473 0 45.0001C0 69.8529 20.1472 90.0001 45 90.0001Z" fill="#FFA40B"/>
<path fill-rule="evenodd" clip-rule="evenodd" d="M51.5306 89.4769C51.9047 89.4375 52.2759 89.3925 52.6472 89.3475C55.6059 88.8358 58.506 88.0293 61.3041 86.94C62.7025 86.3976 64.073 85.7855 65.4103 85.1062C68.0861 83.7435 70.6187 82.1163 72.9703 80.249C77.6866 76.5065 81.6039 71.8557 84.4903 66.5718C84.8503 65.8743 85.1906 65.1712 85.5112 64.4568L67.1372 46.0828C67.3875 45.81 67.5197 46.755 67.5056 46.3837L85.4859 64.5384C85.5562 64.3978 86.0962 63.2531 86.1665 63.1097L45.9731 22.9218C45.8422 22.7899 45.6864 22.6853 45.5148 22.6138C45.3432 22.5424 45.1592 22.5056 44.9733 22.5056C44.7874 22.5056 44.6034 22.5424 44.4318 22.6138C44.2602 22.6853 44.1044 22.7899 43.9734 22.9218L22.9022 44.1393C21.5635 45.4696 23.566 47.4721 24.8963 46.1362L28.1475 49.3875V66.0937C28.1475 66.4667 28.2957 66.8244 28.5594 67.0881C28.8231 67.3518 29.1808 67.5 29.5538 67.5L51.5306 89.4769Z" fill="#FF7712"/>
<path fill-rule="evenodd" clip-rule="evenodd" d="M44.9634 22.5003C44.591 22.5036 44.2351 22.6541 43.9734 22.9191L22.9022 44.1395C22.6385 44.4047 22.491 44.7636 22.492 45.1376C22.4931 45.5115 22.6426 45.8699 22.9078 46.1336C23.173 46.3973 23.532 46.5449 23.906 46.5438C24.28 46.5428 24.6382 46.3929 24.9019 46.1277L28.1475 42.8596V66.094C28.1475 66.467 28.2957 66.8245 28.5594 67.0883C28.8231 67.352 29.1808 67.5003 29.5537 67.5003H60.4912C60.8642 67.5003 61.2219 67.352 61.4856 67.0883C61.7493 66.8245 61.8975 66.467 61.8975 66.094V42.9527L65.0531 46.1277C65.1844 46.2584 65.3401 46.3621 65.5115 46.4326C65.6828 46.5031 65.8663 46.5392 66.0516 46.5387C66.4253 46.551 66.7886 46.4142 67.0615 46.1586C67.3345 45.9031 67.4947 45.5497 67.507 45.176C67.5193 44.8023 67.3827 44.4389 67.1271 44.166C66.8716 43.893 66.5181 43.7327 66.1444 43.7204H66.6394L45.9731 22.9191C45.8412 22.7855 45.684 22.6797 45.5106 22.6077C45.3372 22.5358 45.1512 22.4993 44.9634 22.5003ZM44.9747 25.9115L59.085 40.1234V64.6878H50.6475V52.0315C50.6475 51.6585 50.4993 51.3006 50.2356 51.0369C49.9719 50.7732 49.6142 50.6253 49.2412 50.6253H40.8037C40.4308 50.6253 40.0731 50.7732 39.8094 51.0369C39.5457 51.3006 39.3975 51.6585 39.3975 52.0315V64.6878H30.96V40.0221L44.9747 25.9115ZM45.0225 33.7503C41.9344 33.7503 39.3975 36.2871 39.3975 39.3753C39.3975 42.4662 41.9344 45.0003 45.0225 45.0003C48.1162 45.0003 50.6475 42.4662 50.6475 39.3753C50.6475 36.2871 48.1162 33.7503 45.0225 33.7503ZM45.0225 36.5628C46.5947 36.5628 47.835 37.8059 47.835 39.3753C47.835 40.9446 46.5947 42.1878 45.0225 42.1878C43.4531 42.1878 42.21 40.9446 42.21 39.3753C42.21 37.8059 43.4531 36.5628 45.0225 36.5628ZM42.21 53.4378H47.835V64.6878H42.21V53.4378Z" fill="white"/>
</svg>
