<svg width="90" height="90" viewBox="0 0 90 90" fill="none" xmlns="http://www.w3.org/2000/svg">
<path d="M45 90.0001C69.8528 90.0001 90 69.8529 90 45.0001C90 20.1473 69.8528 0 45 0C20.1472 0 0 20.1473 0 45.0001C0 69.8529 20.1472 90.0001 45 90.0001Z" fill="black"/>
<path fill-rule="evenodd" clip-rule="evenodd" d="M51.5306 89.4769C51.9047 89.4375 52.2759 89.3925 52.6472 89.3475C55.6059 88.8358 58.506 88.0293 61.3041 86.94C62.7025 86.3976 64.073 85.7855 65.4103 85.1062C68.0861 83.7435 70.6187 82.1163 72.9703 80.249C77.6866 76.5065 81.6039 71.8557 84.4903 66.5718C84.8503 65.8743 85.1906 65.1712 85.5112 64.4568L67.1372 46.0828C67.3875 45.81 67.5197 46.755 67.5056 46.3837L85.4859 64.5384C85.5562 64.3978 86.0962 63.2531 86.1665 63.1097L45.9731 22.9218C45.8422 22.7899 45.6864 22.6853 45.5148 22.6138C45.3432 22.5424 45.1592 22.5056 44.9733 22.5056C44.7874 22.5056 44.6034 22.5424 44.4318 22.6138C44.2602 22.6853 44.1044 22.7899 43.9734 22.9218L22.9022 44.1393C21.5635 45.4696 23.566 47.4721 24.8963 46.1362L28.1475 49.3875V66.0937C28.1475 66.4667 28.2957 66.8244 28.5594 67.0881C28.8231 67.3518 29.1808 67.5 29.5538 67.5L51.5306 89.4769Z" fill="#A5A5A5"/>
<path fill-rule="evenodd" clip-rule="evenodd" d="M44.9634 22.5001C44.591 22.5035 44.2351 22.654 43.9734 22.919L22.9022 44.1394C22.6385 44.4046 22.491 44.7635 22.492 45.1375C22.4931 45.5114 22.6426 45.8698 22.9078 46.1334C23.173 46.3971 23.532 46.5448 23.906 46.5437C24.28 46.5427 24.6382 46.3928 24.9019 46.1276L28.1475 42.8595V66.0939C28.1475 66.4668 28.2957 66.8244 28.5594 67.0881C28.8231 67.3519 29.1808 67.5001 29.5537 67.5001H60.4912C60.8642 67.5001 61.2219 67.3519 61.4856 67.0881C61.7493 66.8244 61.8975 66.4668 61.8975 66.0939V42.9526L65.0531 46.1276C65.1844 46.2583 65.3401 46.362 65.5115 46.4325C65.6828 46.5029 65.8663 46.5391 66.0516 46.5386C66.4253 46.5509 66.7886 46.4141 67.0615 46.1585C67.3345 45.903 67.4947 45.5496 67.507 45.1759C67.5193 44.8022 67.3827 44.4388 67.1271 44.1659C66.8716 43.8929 66.5181 43.7325 66.1444 43.7202H66.6394L45.9731 22.919C45.8412 22.7854 45.684 22.6796 45.5106 22.6076C45.3372 22.5356 45.1512 22.4992 44.9634 22.5001ZM44.9747 25.9114L59.085 40.1232V64.6876H50.6475V52.0314C50.6475 51.6584 50.4993 51.3005 50.2356 51.0368C49.9719 50.7731 49.6142 50.6251 49.2412 50.6251H40.8037C40.4308 50.6251 40.0731 50.7731 39.8094 51.0368C39.5457 51.3005 39.3975 51.6584 39.3975 52.0314V64.6876H30.96V40.022L44.9747 25.9114ZM45.0225 33.7501C41.9344 33.7501 39.3975 36.287 39.3975 39.3751C39.3975 42.4661 41.9344 45.0001 45.0225 45.0001C48.1162 45.0001 50.6475 42.4661 50.6475 39.3751C50.6475 36.287 48.1162 33.7501 45.0225 33.7501ZM45.0225 36.5626C46.5947 36.5626 47.835 37.8058 47.835 39.3751C47.835 40.9445 46.5947 42.1876 45.0225 42.1876C43.4531 42.1876 42.21 40.9445 42.21 39.3751C42.21 37.8058 43.4531 36.5626 45.0225 36.5626ZM42.21 53.4376H47.835V64.6876H42.21V53.4376Z" fill="white"/>
</svg>
